# xmcd CD database file
#
# Track frame offsets:
#	150
#	32550
#	68250
#	105440
#	143761
#	163411
#	194254
#
# Disc length: 3036 seconds
#
# Revision: 0
# Processed by: cddbd v1.5.2PL0 Copyright (c) Steve Scherf et al.
# Submitted via: CDex 1.70beta2
#
DISCID=540bda07
DTITLE=Blake Phillips - First Impressions
DYEAR=2008
DGENRE=Jazz
TTITLE0=Impressions
TTITLE1=Miss Jones
TTITLE2=Blues For Alice
TTITLE3=All The Things
TTITLE4=Rainy Day
TTITLE5=Tenor Madness
TTITLE6=Autumn Leaves
EXTD=YEAR: 2008
EXTT0=
EXTT1=
EXTT2=
EXTT3=
EXTT4=
EXTT5=
EXTT6=
PLAYORDER=
